Coordinates
version=1
nRows=13
nColumns=34
inDegrees=yes

Units are S.I. units (second, meters, Newtons, ...)
If the header above contains a line with 'inDegrees', this indicates whether rotational values are in degrees (yes) or radians (no).

endheader
time	pelvis_tilt	pelvis_list	pelvis_rotation	pelvis_tx	pelvis_ty	pelvis_tz	hip_flexion_r	hip_adduction_r	hip_rotation_r	knee_angle_r	ankle_angle_r	subtalar_angle_r	mtp_angle_r	hip_flexion_l	hip_adduction_l	hip_rotation_l	knee_angle_l	ankle_angle_l	subtalar_angle_l	mtp_angle_l	lumbar_extension	lumbar_bending	lumbar_rotation	arm_flex_r	arm_add_r	arm_rot_r	elbow_flex_r	pro_sup_r	arm_flex_l	arm_add_l	arm_rot_l	elbow_flex_l	pro_sup_l
     30.00000000	     39.19671592	    -20.93024650	    159.00787073	      0.17073597	      0.83465227	     -0.21232547	     28.72523309	     -5.28004177	     -1.75035719	     64.04284014	    -43.78983836	    -35.00000000	      0.00000000	     26.87919478	     -4.50036764	     -8.85975488	     65.26814542	    -21.33774627	    -24.57855384	      0.00000000	    -24.97228102	      1.54915697	     -5.26988389	   -171.75750611	   -162.18868538	    135.68503395	    143.83922978	     97.39133282	     16.35793152	    332.81665513	    305.02163985	    137.56169437	     95.41104887
     30.01666670	     39.37966825	    -21.11866632	    158.99249721	      0.16978324	      0.83350402	     -0.21286922	     28.92933364	     -5.37405525	     -1.59517895	     64.07150699	    -43.34047853	    -35.00000000	      0.00000000	     26.85620454	     -4.40739174	     -9.06118453	     65.05656143	    -21.64219617	    -25.06077531	      0.00000000	    -25.04394602	      1.34927437	     -5.24338067	   -171.86177143	   -162.28253942	    135.48342920	    143.98564314	     97.32894432	     15.88835376	    333.11115553	    304.82222232	    137.89706915	     95.25600427
     30.03333330	     39.62502809	    -21.24953190	    159.10317797	      0.16869775	      0.83244800	     -0.21334986	     29.08972186	     -5.43268712	     -1.57857332	     63.93556782	    -42.95327789	    -35.00000000	      0.00000000	     26.84528262	     -4.37841239	     -9.16810391	     64.77025399	    -21.82833279	    -25.28847852	      0.00000000	    -25.02029431	      1.27510758	     -5.29724048	   -171.89605275	   -162.29616810	    135.33322681	    144.08705242	     97.26777161	     15.54638249	    333.31846803	    304.68054295	    138.21162884	     95.10382464
     30.05000000	     39.83377754	    -21.32186133	    159.23007154	      0.16776411	      0.83205452	     -0.21406191	     29.16177472	     -5.41189964	     -1.59019520	     63.62741227	    -42.72829024	    -35.00000000	      0.00000000	     26.77269322	     -4.41059122	     -9.22584608	     64.36431254	    -21.96949042	    -25.23337192	      0.00000000	    -25.01598315	      1.25347986	     -5.32404206	   -171.87134883	   -162.29917787	    135.29513301	    144.11307977	     97.23226706	     15.32885106	    333.49606106	    304.67412341	    138.38517440	     95.01574172
     30.06666670	     40.01918933	    -21.36825535	    159.36493204	      0.16678287	      0.83175551	     -0.21463165	     29.22341502	     -5.37037866	     -1.58514644	     63.36453983	    -42.49642513	    -35.00000000	      0.00000000	     26.70991995	     -4.43017253	     -9.25407050	     63.98665651	    -22.02631443	    -25.18767461	      0.00000000	    -25.04933563	      1.26731356	     -5.32300329	   -171.79786616	   -162.27864265	    135.29243265	    144.10884177	     97.21455278	     15.18895872	    333.64972501	    304.73433167	    138.50356488	     94.97511440
     30.08333330	     40.20513081	    -21.39938640	    159.50885578	      0.16578726	      0.83162624	     -0.21520853	     29.28176257	     -5.35377959	     -1.63880500	     63.16039522	    -42.06338056	    -35.00000000	      0.00000000	     26.70145790	     -4.46195333	     -9.25940992	     63.73393320	    -21.96300796	    -25.25860968	      0.00000000	    -25.13739415	      1.27984453	     -5.36599712	   -171.64781262	   -162.25979004	    135.29469968	    144.07293694	     97.18280249	     14.91201894	    334.00107262	    304.91783933	    138.76892168	     94.90909982
     30.10000000	     40.37736409	    -21.45716822	    159.68344921	      0.16484013	      0.83159405	     -0.21572302	     29.31578334	     -5.35757046	     -1.65936189	     62.93678232	    -41.83033522	    -35.00000000	      0.00000000	     26.76942107	     -4.44326908	     -9.24440127	     63.60620321	    -21.67805804	    -25.46654679	      0.00000000	    -25.27929942	      1.29390590	     -5.42289284	   -171.50722328	   -162.24226088	    135.31232858	    144.01209805	     97.15849026	     14.79321581	    334.16770242	    305.07243149	    138.93805908	     94.86002838
     30.11666670	     40.57550470	    -21.45019226	    159.88950079	      0.16387827	      0.83173397	     -0.21614322	     29.28419864	     -5.35299174	     -1.83173971	     62.62597133	    -41.53973630	    -35.00000000	      0.00000000	     26.85620294	     -4.47075945	     -9.17424829	     63.40407112	    -21.55516894	    -25.36142436	      0.00000000	    -25.41839328	      1.37610349	     -5.50776812	   -171.20950631	   -162.17654778	    135.34127029	    143.87309866	     97.10749170	     14.62634476	    334.42919507	    305.37573751	    139.23143976	     94.76311552
     30.13333330	     40.76329263	    -21.52927231	    160.03228707	      0.16300097	      0.83175646	     -0.21679534	     29.25056704	     -5.32972363	     -1.82259289	     62.23470882	    -41.47788921	    -35.00000000	      0.00000000	     26.94472839	     -4.42825877	     -9.18803995	     63.16872079	    -21.44142616	    -25.36649690	      0.00000000	    -25.56243243	      1.35284747	     -5.54434607	   -171.10171221	   -162.14697856	    135.35623886	    143.84102166	     97.09539004	     14.63937267	    334.43769824	    305.45411917	    139.24365645	     94.74045655
     30.15000000	     40.87966684	    -21.56556704	    160.38178963	      0.16204838	      0.83179704	     -0.21713710	     29.00869989	     -5.44079881	     -2.11525153	     61.74620044	    -41.25166364	    -35.00000000	      0.00000000	     27.13635378	     -4.32708866	     -8.97027223	     63.32162439	    -20.89079370	    -25.46215691	      0.00000000	    -25.78174134	      1.40417502	     -5.79412580	   -170.69072017	   -162.15256411	    135.39264370	    143.64651940	     97.00912929	     14.75668489	    334.42083219	    305.88198533	    139.42379499	     94.57825578
     30.16666670	     41.04159515	    -21.67032420	    160.53463621	      0.16139235	      0.83142290	     -0.21771271	     28.97598726	     -5.44800388	     -2.07832266	     61.49313309	    -41.20673167	    -35.00000000	      0.00000000	     27.23848917	     -4.28503234	     -9.04945250	     63.27398553	    -20.82201394	    -25.49705135	      0.00000000	    -25.97374844	      1.36583961	     -5.77632071	   -170.64586283	   -162.14286152	    135.41027435	    143.62384555	     97.00683548	     14.77188699	    334.41687577	    305.90822459	    139.39720143	     94.57201952
     30.18333330	     41.26186061	    -21.69727895	    160.85588831	      0.16062973	      0.83109698	     -0.21792683	     28.89065906	     -5.50079038	     -2.32520407	     61.14565474	    -40.90047992	    -35.00000000	      0.00000000	     27.43494107	     -4.19013169	     -8.83567591	     63.27754630	    -20.51681692	    -25.39801977	      0.00000000	    -26.09303480	      1.50830917	     -6.01022000	   -170.19263297	   -162.03459530	    135.35314046	    143.63188000	     96.94806166	     15.07836916	    334.19601837	    306.19563069	    139.29946592	     94.46773284
     30.20000000	     41.46075771	    -21.70893439	    161.10216966	      0.15993293	      0.83045284	     -0.21837863	     28.86010549	     -5.44634332	     -2.39628660	     60.98882870	    -40.71181707	    -35.00000000	      0.00000000	     27.56399776	     -4.18519026	     -8.70193643	     63.29097562	    -20.62217838	    -25.14402925	      0.00000000	    -26.23097343	      1.61088153	     -6.08645428	   -170.03027152	   -162.02033047	    135.33386232	    143.58729699	     96.90229249	     15.26027436	    334.05766455	    306.41207262	    139.15847887	     94.37734551
